/* XPM */
static char * invalidParameters_xpm[] = {
"22 22 103 2",
"  	c None",
". 	c #0B0000",
"+ 	c #4F0000",
"@ 	c #410000",
"# 	c #320000",
"$ 	c #5C0000",
"% 	c #A10000",
"& 	c #560000",
"* 	c #6B0000",
"= 	c #5E0000",
"- 	c #540000",
"; 	c #F20000",
"> 	c #C90000",
", 	c #460000",
"' 	c #530000",
") 	c #650000",
"! 	c #790000",
"~ 	c #B40000",
"{ 	c #BD0000",
"] 	c #A60000",
"^ 	c #810000",
"/ 	c #AC0000",
"( 	c #FF0000",
"_ 	c #DA0000",
": 	c #390000",
"< 	c #4D0000",
"[ 	c #6E0000",
"} 	c #9E0000",
"| 	c #F10000",
"1 	c #B10000",
"2 	c #780000",
"3 	c #2B0000",
"4 	c #2C0000",
"5 	c #1E0000",
"6 	c #9F0000",
"7 	c #AF0000",
"8 	c #7E0000",
"9 	c #4B0000",
"0 	c #8F0000",
"a 	c #400000",
"b 	c #260000",
"c 	c #130000",
"d 	c #A80000",
"e 	c #AA0000",
"f 	c #640000",
"g 	c #8B0000",
"h 	c #970000",
"i 	c #3D0000",
"j 	c #360000",
"k 	c #A30000",
"l 	c #DC0000",
"m 	c #C50000",
"n 	c #3C0000",
"o 	c #570000",
"p 	c #660000",
"q 	c #EF0000",
"r 	c #8E0000",
"s 	c #860000",
"t 	c #270000",
"u 	c #340000",
"v 	c #830000",
"w 	c #2A0000",
"x 	c #880000",
"y 	c #850000",
"z 	c #EC0000",
"A 	c #A50000",
"B 	c #420000",
"C 	c #610000",
"D 	c #6D0000",
"E 	c #F90000",
"F 	c #8A0000",
"G 	c #150000",
"H 	c #740000",
"I 	c #5D0000",
"J 	c #9A0000",
"K 	c #510000",
"L 	c #A70000",
"M 	c #BF0000",
"N 	c #C60000",
"O 	c #220000",
"P 	c #9B0000",
"Q 	c #600000",
"R 	c #7F0000",
"S 	c #800000",
"T 	c #4A0000",
"U 	c #470000",
"V 	c #230000",
"W 	c #CF0000",
"X 	c #710000",
"Y 	c #300000",
"Z 	c #E60000",
"` 	c #3A0000",
" .	c #580000",
"..	c #8C0000",
"+.	c #350000",
"@.	c #7B0000",
"#.	c #A90000",
"$.	c #330000",
"%.	c #2F0000",
"&.	c #620000",
"*.	c #370000",
"=.	c #240000",
"-.	c #870000",
"                                            ",
"  .                                 + @     ",
"  # $ +                         % & * =     ",
"  - ; > ,                   ' ) ! ~ { ]     ",
"  ^ / ( _ & :             < [ } ( | 1       ",
"    * _ ( ( 2 3       4 5 6 7 ( ( 8         ",
"      9 2 ( ( 0 a b c 3 d 7 ( e f           ",
"        a g ( ( h i j k l ( m n             ",
"          o p ( ( q r ( ( s t               ",
"            u q ( ( ( ( v w                 ",
"              x y z ( A B                   ",
"              C D E ; F p G                 ",
"            H I J ( ( ( ( a #               ",
"            K L ( M * ( ( N O               ",
"          , P ( ( Q   + ; ( R b             ",
"        p + ( ( S       T ( ( & -           ",
"      U V ; W X           , ( W t           ",
"      Y d Z K               ' ; r `         ",
"    #  ...+.                @.9 #.$.        ",
"    %.&.*.                    K b =.y       ",
"      3                         I -.        ",
"                                            "};
