/* XPM */
static char * validParameters_xpm[] = {
"22 22 72 1",
" 	c None",
".	c #004C00",
"+	c #000B00",
"@	c #00EC00",
"#	c #00C200",
"$	c #002C00",
"%	c #003D00",
"&	c #00CB00",
"*	c #009300",
"=	c #005000",
"-	c #00A400",
";	c #00D100",
">	c #00FF00",
",	c #003E00",
"'	c #00B900",
")	c #00DC00",
"!	c #00F200",
"~	c #006900",
"{	c #001C00",
"]	c #00E800",
"^	c #00AC00",
"/	c #007200",
"(	c #008800",
"_	c #00AF00",
":	c #004200",
"<	c #00EA00",
"[	c #007600",
"}	c #004A00",
"|	c #00D800",
"1	c #00BC00",
"2	c #004000",
"3	c #002300",
"4	c #008200",
"5	c #00F100",
"6	c #008400",
"7	c #006A00",
"8	c #00B700",
"9	c #008500",
"0	c #005600",
"a	c #009000",
"b	c #007B00",
"c	c #00AB00",
"d	c #00BD00",
"e	c #00B500",
"f	c #007E00",
"g	c #006C00",
"h	c #004E00",
"i	c #004800",
"j	c #00DA00",
"k	c #00A600",
"l	c #008F00",
"m	c #005900",
"n	c #00CC00",
"o	c #004600",
"p	c #005400",
"q	c #009D00",
"r	c #008100",
"s	c #006000",
"t	c #007300",
"u	c #00D200",
"v	c #00B400",
"w	c #008C00",
"x	c #003F00",
"y	c #003400",
"z	c #002A00",
"A	c #005F00",
"B	c #00E600",
"C	c #003000",
"D	c #006300",
"E	c #001800",
"F	c #006700",
"G	c #004B00",
"                      ",
"                   .+ ",
"                 @#$% ",
"                &#*=  ",
"               -;>,   ",
"              ')!~{   ",
" ]^/         (!>_:    ",
" <)[}        |>123    ",
" 45!6/     78>!90     ",
"  a>>b     c>>d}      ",
"   e>>f   g>>!hi      ",
"    j>>h 2k>>lm       ",
"     d>no >>!p        ",
"     q)>rs>>/t        ",
"      u>>>>_,v        ",
"      wd>>>xy         ",
"       q>>;zA         ",
"       ldBC,          ",
"        #DEA          ",
"        FGo           ",
"                      ",
"                      "};
