/* XPM */
static char * icon_xpm[] = {
"32 32 42 1",
" 	c None",
".	c #FFDA22",
"+	c #FFD400",
"@	c #EDC500",
"#	c #353735",
"$	c #525552",
"%	c #474947",
"&	c #424442",
"*	c #ABACAB",
"=	c #DEE1DE",
"-	c #000000",
";	c #D4D7D4",
">	c #BABBBA",
",	c #3A3C3A",
"'	c #75FF00",
")	c #FFFFFF",
"!	c #FF03FF",
"~	c #B6B9B6",
"{	c #FF0300",
"]	c #81FA15",
"^	c #F64D4D",
"/	c #DFE0DD",
"(	c #FF2B2B",
"_	c #FF8686",
":	c #F39C9B",
"<	c #C2B4B3",
"[	c #7CFC0D",
"}	c #FF7474",
"|	c #FC5050",
"1	c #DE8F8C",
"2	c #F84646",
"3	c #FF4040",
"4	c #FF4141",
"5	c #F45252",
"6	c #ACABAA",
"7	c #F94645",
"8	c #FA4040",
"9	c #FD0300",
"0	c #FD3333",
"a	c #FFFDFD",
"b	c #FA0300",
"c	c #FC0300",
"                                ",
" .+     +@ .++@ .++@            ",
" .++   ++@ .++@ .++@            ",
" .+++ +++@ .@   .@              ",
" .+++++@+@ .@   .@              ",
" .@ ++@ +@ .@   .@      ###     ",
" .@  @  +@ .@   .@###  #$$#     ",
" .@     +@ .@   .@$$$##$%&#     ",
" .@     +@ .++@ .++@%$$%&#      ",
" .@     +@ .++@ .++@&%%&#       ",
"                 *=#&&&&#       ",
" ---------------*=;>#&&&,#----- ",
" -''')''')''')'*=;>>>#&&,#!!!)- ",
" -''')''')''')*=;>>>>~#&,#!!!)- ",
" -''')''')'''*=;>>>>~*#,,#!!!)- ",
" -))))))))))*=;>>>>~*))###))))- ",
" -''')''')'*=;>>>>~*{){!!)!!!)- ",
" -''')''')*=;>>>>~*{{){!!)!!!)- ",
" -''')'''*=;>>>>~*{{{){!!)!!!)- ",
" -))))))*=;>>>>~*)))))))))))))- ",
" -''')']^/;>>>~*{){{{){!!)!!!)- ",
" -''')'(_:<>>~*{{){{{){!!)!!!)- ",
" -''')[(_}|1~*{{{){{{){!!)!!!)- ",
" -))))2_}3456)))))))))))))))))- ",
" -''')7_3(89{){{{){{{)!!!)!!!)- ",
" -''')7(0a{{{){{{){{{)!!!)!!!)- ",
" -''')'bc){{{){{{){{{)!!!)!!!)- ",
" -))))))))))))))))))))))))))))- ",
" -'''){{{){{{){{{){{{)!!!)!!!)- ",
" -'''){{{){{{){{{){{{)!!!)!!!)- ",
" ------------------------------ ",
"                                "};
